Coordinates
version=1
nRows=54
nColumns=12
inDegrees=yes

Units are S.I. units (second, meters, Newtons, ...)
Angles are in degrees

endheader
time	SC_y	SC_z	SC_x	AC_y	AC_z	AC_x	GH_y	GH_z	GH_yy	EL_x	PS_y
       0.0              -30.19          16.01          68.45          41.86          3.935         -13.27          5.214         -13.84         -112.2          40.66          145.7
    0.0147              -30.18          16.01          68.45          41.86          3.933         -13.27          5.208         -13.82         -112.2          40.65          145.7
   0.02941              -30.18          16.01          68.45          41.86          3.932         -13.27          5.203          -13.8         -112.2          40.65          145.7
   0.04411              -30.18          16.01          68.45          41.86          3.931         -13.27          5.197         -13.79         -112.2          40.65          145.7
   0.05881              -30.18           16.0          68.45          41.86          3.929         -13.27          5.191         -13.77         -112.2          40.64          145.7
   0.07352              -30.18           16.0          68.45          41.86          3.928         -13.27          5.184         -13.75         -112.2          40.64          145.7
   0.08822              -30.18           16.0          68.44          41.87          3.926         -13.27          5.177         -13.73         -112.2          40.64          145.7
    0.1029              -30.17           16.0          68.44          41.87          3.924         -13.27           5.17         -13.71         -112.2          40.63          145.7
    0.1176              -30.17           16.0          68.44          41.87          3.922         -13.27          5.162         -13.69         -112.2          40.63          145.7
    0.1323              -30.17           16.0          68.44          41.88           3.92         -13.26          5.153         -13.66         -112.2          40.62          145.7
     0.147              -30.17           16.0          68.43          41.88          3.918         -13.26          5.144         -13.64         -112.2          40.61          145.7
    0.1617              -30.16           16.0          68.43          41.88          3.915         -13.26          5.134         -13.61         -112.2          40.61          145.7
    0.1764              -30.16           16.0          68.43          41.88          3.913         -13.26          5.123         -13.58         -112.2           40.6          145.7
    0.1911              -30.16           16.0          68.43          41.89           3.91         -13.26          5.111         -13.54         -112.2           40.6          145.6
    0.2059              -30.15          15.99          68.42          41.89          3.907         -13.25          5.099         -13.51         -112.2          40.59          145.6
    0.2206              -30.15          15.99          68.42           41.9          3.904         -13.25          5.085         -13.47         -112.2          40.58          145.6
    0.2353              -30.15          15.99          68.41           41.9            3.9         -13.25           5.07         -13.43         -112.2          40.57          145.6
      0.25              -30.14          15.99          68.41          41.91          3.896         -13.25          5.054         -13.38         -112.2          40.56          145.6
    0.2647              -30.14          15.99           68.4          41.91          3.892         -13.24          5.036         -13.33         -112.2          40.55          145.6
    0.2794              -30.13          15.99           68.4          41.92          3.887         -13.24          5.017         -13.27         -112.3          40.54          145.6
    0.2941              -30.12          15.98          68.39          41.93          3.882         -13.24          4.996         -13.21         -112.3          40.52          145.5
    0.3088              -30.12          15.98          68.39          41.93          3.876         -13.23          4.973         -13.15         -112.3          40.51          145.5
    0.3235              -30.11          15.98          68.38          41.94           3.87         -13.23          4.947         -13.07         -112.3          40.49          145.5
    0.3382               -30.1          15.98          68.37          41.95          3.863         -13.22          4.918         -12.99         -112.3          40.48          145.5
    0.3529              -30.09          15.97          68.36          41.96          3.855         -13.22          4.886          -12.9         -112.3          40.46          145.4
    0.3676              -30.08          15.97          68.35          41.97          3.847         -13.21          4.851          -12.8         -112.3          40.44          145.4
    0.3823              -30.07          15.96          68.34          41.99          3.837         -13.21          4.811         -12.68         -112.3          40.41          145.4
     0.397              -30.06          15.96          68.33           42.0          3.826          -13.2          4.766         -12.56         -112.3          40.39          145.3
    0.4117              -30.05          15.95          68.32          42.02          3.814         -13.19          4.716         -12.41         -112.4          40.35          145.3
    0.4264              -30.03          15.95           68.3          42.03            3.8         -13.18          4.658         -12.25         -112.4          40.32          145.2
    0.4411              -30.01          15.94          68.28          42.06          3.785         -13.17          4.593         -12.06         -112.4          40.28          145.2
    0.4558              -29.99          15.93          68.26          42.08          3.766         -13.16          4.518         -11.85         -112.4          40.23          145.1
    0.4705              -29.97          15.92          68.24          42.11          3.745         -13.14          4.431          -11.6         -112.4          40.18          145.0
    0.4852              -29.94          15.91          68.21          42.14          3.721         -13.12           4.33         -11.31         -112.5          40.12          144.9
    0.4999              -29.91           15.9          68.18          42.18          3.693          -13.1          4.212         -10.97         -112.5          40.05          144.8
    0.5146              -29.87          15.88          68.14          42.22          3.659         -13.08          4.073         -10.58         -112.6          39.96          144.7
    0.5293              -29.82          15.86          68.09          42.28          3.619         -13.05          3.908          -10.1         -112.6          39.86          144.5
     0.544              -29.77          15.84          68.04          42.34          3.571         -13.02           3.71         -9.537         -112.7          39.74          144.4
    0.5587               -29.7          15.82          67.97          42.42          3.513         -12.98           3.47         -8.853         -112.8           39.6          144.1
    0.5734              -29.62          15.79          67.89          42.51          3.442         -12.93          3.178         -8.016         -112.9          39.42          143.9
    0.5881              -29.52          15.75          67.79          42.63          3.355         -12.87          2.816         -6.983         -113.0           39.2          143.5
    0.6029               -29.4           15.7          67.66          42.77          3.246         -12.79          2.366         -5.696         -113.1          38.92          143.1
    0.6176              -29.24          15.63           67.5          42.96          3.109          -12.7          1.798         -4.074         -113.3          38.58          142.6
    0.6323              -29.04          15.56           67.3          43.19          2.935         -12.58          1.077         -2.011         -113.6          38.14          141.9
     0.647              -28.79          15.46          67.04          43.49          2.711         -12.42         0.1534         0.6278         -113.9          37.58          141.1
    0.6617              -28.46          15.33          66.71          43.87          2.425         -12.22         -1.032          4.015         -114.2          36.86          140.0
    0.6764              -28.04          15.16          66.29          44.36          2.059         -11.96         -2.545          8.341         -114.7          35.93          138.6
    0.6911              -27.52          14.95          65.76          44.97          1.599         -11.64         -4.449          13.78         -115.4          34.78          136.8
    0.7058              -26.88           14.7          65.12          45.72          1.038         -11.25         -6.768          20.41         -116.1          33.36          134.7
    0.7205              -26.13          14.41          64.37          46.58         0.3885          -10.8         -9.456          28.09         -117.0          31.73          132.2
    0.7352              -25.33          14.09          63.56          47.52        -0.3152         -10.31         -12.37          36.41         -118.0          29.96          129.5
    0.7499              -24.53          13.77          62.74          48.46         -1.019         -9.817         -15.28          44.74         -118.9          28.18          126.9
    0.7646              -23.79          13.48           62.0          49.33         -1.669         -9.364         -17.97          52.42         -119.8          26.55          124.4
    0.7793              -23.14          13.22          61.35          50.08         -2.229         -8.972         -20.29          59.05         -120.6          25.14          122.2
